<svg width="48" height="52" viewBox="0 0 48 52" fill="none" xmlns="http://www.w3.org/2000/svg">
<path d="M24.7734 0C24.7734 1.94633 24.7734 10.8438 31.5856 18.3511C37.7026 25.1633 45.488 26.5535 47.5733 26.8316C46.0441 26.8316 41.3172 26.9706 37.1465 30.4462C34.7831 32.5315 33.5319 34.7559 32.8368 36.1461" stroke="white" stroke-width="4.17071" stroke-miterlimit="10"/>
<path d="M13.9292 18.0731C13.6512 19.3243 12.956 21.4097 11.1487 23.356C7.25607 27.3877 1.69512 26.8316 1 26.8316C3.3634 27.2487 11.8438 29.334 17.9609 37.3974C22.1316 42.8193 23.1048 48.5193 23.3828 51.1607" stroke="white" stroke-width="4.17071" stroke-miterlimit="10"/>
<path d="M23.3826 25.4416L24.0777 23.9124V25.5806L25.3289 24.4684L24.6338 25.9977L26.1631 25.4416L24.9119 26.5538L26.5801 26.6928L24.9119 27.1099L26.4411 27.944L24.7728 27.805L25.746 29.1953L24.3558 28.3611L24.6338 29.8904L23.6606 28.5001L23.3826 30.1684L23.1046 28.5001L22.1314 29.8904L22.4094 28.3611L21.0192 29.1953L21.9924 27.805L20.3241 27.944L21.8533 27.1099L20.1851 26.6928L21.8533 26.5538L20.6021 25.4416L22.1314 25.9977L21.5753 24.4684L22.6875 25.5806V23.9124L23.3826 25.4416Z" fill="white"/>
</svg>
