<svg width="42" height="42" viewBox="0 0 42 42" fill="none" xmlns="http://www.w3.org/2000/svg">
<path d="M21 10.0435L25.5652 0V10.9565L33.7826 3.65217L29.2174 13.6957L39.2608 10.0435L31.0435 17.3478L42 18.2609L31.0435 21L41.087 26.4783L30.1304 25.5652L36.5218 34.6957L27.3913 29.2174L29.2174 39.2609L22.8261 30.1304L21 41.087L19.1739 30.1304L12.7826 39.2609L14.6087 29.2174L5.47825 34.6957L11.8695 25.5652L0.91303 26.4783L10.9565 21L0 18.2609L10.9565 17.3478L2.73909 10.0435L12.7826 13.6957L9.13044 3.65217L16.4347 10.9565V0L21 10.0435Z" fill="white"/>
</svg>
